<svg width="425" height="562" viewBox="0 0 425 562" fill="none" xmlns="http://www.w3.org/2000/svg">
    <path d="M11.5072 295.096C57.778 271.186 186.886 221.359 364.609 290.346C292.977 357.512 104.218 377.355 76.7183 383.355C-9.78174 390.855 -7.48714 388.609 -15.6852 352.228C-20.8131 329.317 -9.36441 305.876 11.5072 295.096Z" fill="#6A912D" />
    <path d="M-58.8165 362.995C-58.8165 362.995 -83.9925 125.394 110.841 24.1602C110.841 24.1602 81.0847 126.016 87.1307 150.825L49.9956 180.616L82.5526 176.093C82.5526 176.093 64.8051 227.181 61.5774 260.149C58.3496 293.118 33.4839 335.689 -58.8165 362.995Z" fill="#4A671E" />
    <path d="M-82.9204 318.777C-82.9204 318.777 149.517 263.452 274.813 443.756C274.813 443.756 169.99 427.256 146.157 436.422L111.866 403.397L120.511 435.109C120.511 435.109 67.5744 424.034 34.4638 425.045C1.35326 426.056 -44.0465 406.833 -82.9204 318.777Z" fill="#4A671E" />
    <path d="M-56.1979 362.248C-45.2077 313.309 -29.9472 265.427 -10.5918 219.154C8.915 172.901 32.2705 129.948 58.8331 91.4948C74.2651 69.0087 91.3311 47.6889 109.893 27.708C110.538 25.4153 110.91 24.1419 110.91 24.1419L109.287 24.9636C90.2501 45.3305 72.7692 67.098 56.9916 90.0824C30.2837 128.648 6.87844 171.769 -12.6906 218.17C-32.2862 264.983 -47.7072 313.435 -58.7737 362.962C-57.9052 362.733 -57.0652 362.454 -56.1979 362.248Z" fill="#15322E" />
    <path d="M-81.8452 321.278C-31.9029 325.926 17.5357 334.944 65.9025 348.229C114.269 361.667 159.854 379.343 201.385 400.775C225.659 413.208 248.984 427.41 271.173 443.267C273.529 443.614 274.84 443.821 274.84 443.821L273.817 442.316C251.185 426.037 227.363 411.48 202.551 398.768C160.889 377.207 115.132 359.502 66.6099 346.022C17.6778 332.567 -32.3475 323.463 -82.8823 318.815C-82.5447 319.647 -82.1604 320.444 -81.8452 321.278Z" fill="#15322E" />
    <path d="M269.482 289.271C221.869 292.358 174.726 300.56 128.868 313.734C78.0547 328.36 29.224 349.155 -16.5331 375.654C-15.253 375.803 -13.9243 375.93 -12.5208 375.991C32.2388 350.378 79.9063 330.222 129.462 315.952C175.152 302.823 222.122 294.645 269.56 291.559C300.394 289.519 331.336 289.731 362.139 292.192C362.959 291.443 363.711 290.789 364.486 290.075C332.883 287.431 301.125 287.162 269.482 289.271Z" fill="#15322E" />
    <path d="M-62.3149 335.371C-62.3149 335.371 44.6115 149.122 292.544 137.334L215.632 206.212L192.293 202.451L201.946 218.47C201.946 218.47 140.876 270.724 111.47 308.989C56.0339 380.917 -21.7584 409.494 -62.3149 335.371Z" fill="#3F5617" />
    <path d="M222.059 157.039C184.915 172.764 144.516 196.062 101.98 226.308C54.0845 260.375 3.2949 303.455 -49.1549 354.402C-48.6966 354.93 -48.2469 355.452 -47.7477 355.969C4.59038 305.097 55.2235 262.168 102.985 228.175C145.382 198.011 185.616 174.779 222.595 159.121C253.479 146.033 276.666 140.626 291.363 138.409L292.608 137.302C288.982 137.475 285.4 137.693 281.861 137.955C266.682 140.933 246.799 146.609 222.059 157.039Z" fill="#15322E" />
</svg>
    