<?xml version="1.0" encoding="utf-8"?>
<!-- Generator: Adobe Illustrator 19.2.1, SVG Export Plug-In . SVG Version: 6.00 Build 0)  -->
<svg version="1.1" id="layer" xmlns="http://www.w3.org/2000/svg" xmlns:xlink="http://www.w3.org/1999/xlink" x="0px" y="0px"
	 viewBox="0 0 652 652" style="enable-background:new 0 0 652 652;" xml:space="preserve">
<style type="text/css">
	.st0{fill:white}
</style>
<path class="st0" d="M53.1,235c13.1,0,19.9,4.7,25.8,8.5s11,7.2,21.6,7.2s15.7-3.4,21.6-7.2c5.9-4.2,12.7-8.5,25.8-8.5
	c13.1,0,19.9,4.7,25.8,8.5c5.9,3.8,11,7.2,21.6,7.2s15.7-3.4,21.6-7.2c5.9-4.2,12.7-8.5,25.8-8.5c13.1,0,19.9,4.7,25.8,8.5
	c5.9,3.8,11,7.2,21.6,7.2c21.2,0,31.8-16.1,31.8-16.1V180c0,0-8,15.7-31.8,15.7c-23.7,0-23.7-15.7-47.4-15.7
	c-23.7,0-23.7,15.7-47.4,15.7S171.7,180,148,180s-23.7,15.7-47.4,15.7S76.8,180,53.1,180s-31.8,15.7-31.8,15.7v52.1
	C26.4,242.6,36.2,235,53.1,235 M53.1,298.1c13.1,0,19.9,4.7,25.8,8.5c5.9,3.8,11,7.2,21.6,7.2s15.7-3.4,21.6-7.2
	c5.9-3.8,12.7-8.5,25.8-8.5c13.1,0,19.9,4.7,25.8,8.5c5.9,3.8,11,7.2,21.6,7.2s15.7-3.4,21.6-7.2c5.9-3.8,12.7-8.5,25.8-8.5
	c13.1,0,19.9,4.7,25.8,8.5c5.9,3.8,11,7.2,21.6,7.2c21.6,0,31.8-16.1,31.8-16.1V246c-4.7,5.5-14.4,13.1-31.8,13.1
	c-13.1,0-19.9-4.7-25.8-8.5c-5.9-3.8-11-7.2-21.6-7.2c-10.6,0-15.7,3.4-21.6,7.2c-5.9,3.8-12.7,8.5-25.8,8.5s-19.9-4.7-25.8-8.5
	c-5.9-3.8-11-7.2-21.6-7.2c-10.6,0-15.7,3.4-21.6,7.2c-5.9,3.8-12.7,8.5-25.8,8.5s-19.9-4.7-25.8-8.5c-5.9-3.8-11-7.2-21.6-7.2
	c-22,0-31.8,16.1-31.8,16.1v51.7C26.4,305.7,36.2,298.1,53.1,298.1 M290.2,322.2c-13.1,0-19.9-4.7-25.8-8.5
	c-5.9-3.8-11-7.2-21.6-7.2c-10.6,0-15.7,3.4-21.6,7.2c-5.9,4.2-12.7,8.5-25.8,8.5s-19.9-4.7-25.8-8.5c-5.9-3.8-10.6-7.2-21.6-7.2
	c-10.6,0-15.7,3.4-21.6,7.2c-5.9,4.2-12.7,8.5-25.8,8.5s-19.9-4.7-25.8-8.5c-5.9-3.8-11-7.2-21.6-7.2c-21.2,0-31.8,16.1-31.8,16.1
	v54.6c0,0,8-15.7,31.8-15.7s23.7,15.7,47.4,15.7s23.7-15.7,47.4-15.7s23.7,15.7,47.4,15.7s23.7-15.7,47.4-15.7s23.7,15.7,47.4,15.7
	s31.8-15.7,31.8-15.7v-52.5C316.9,314.6,307.2,322.2,290.2,322.2 M409.6,169.4l-14.8,44.9h-47.4l38.1,27.9l-14.8,44.9l38.5-27.9
	l38.5,27.9l-14.8-45.3l38.1-27.9h-47 M499.4,318l-14.8-44.9L469.8,318h-47.4l38.1,27.9l-14.8,44.9l38.5-27.9l38.5,27.9l-14.8-44.9
	L546,318 M560,169.4l-14.8,44.9h-47.4l38.1,27.9L521,287.1l38.5-27.9l38.5,27.9l-14.8-45.3l38.1-27.9h-47.4 M51.4,424.7L28.1,448
	v-23.3h-6.4v47.4h6.4v-16.5l7.6-7.6l16.9,23.7h8L40,443.8l19.9-19.1 M83.6,438.7c1.3-3,2.1-5.9,2.5-8.9c0.8,2.5,1.7,5.9,3.4,9.7
	l5.1,13.1H78.5L83.6,438.7 M71.3,471.7l5.1-14.4h19.9l5.5,14.4h7.2l-19.5-47.4h-6.8l-18.2,47.4C64.5,471.7,71.3,471.7,71.3,471.7z
	 M117,472.1v-47.4h6.4l25,37.3v-37.3h5.9v47.4H148l-25-37.3v37.3 M176.3,471.7v-41.5h-15.7v-5.5h37.3v5.5h-15.7v41.5 M211.5,433.6
	c3-3,6.8-4.7,11.4-4.7c3,0,5.9,0.8,8.5,2.5s4.2,3.8,5.5,6.8c1.3,3,2.1,6.4,2.1,10.2c0,5.9-1.7,10.6-4.7,14c-3,3.4-6.8,5.1-11.4,5.1
	c-4.7,0-8.5-1.7-11.4-5.1c-3-3.4-4.7-7.6-4.7-13.1C206.8,441.6,208.1,436.6,211.5,433.6 M203,460.3c1.7,3.8,4.2,6.8,8,8.9
	c3.4,2.1,7.6,3,11.9,3s8-0.8,11.4-3c3.4-1.7,6.4-4.7,8-8.5c2.1-3.8,3-8,3-12.7s-0.8-8.9-2.5-12.7c-1.7-3.8-4.7-6.8-8-8.5
	c-3.4-2.1-7.2-3-11.9-3c-6.8,0-11.9,2.1-16.1,6.8c-4.2,4.2-6.4,10.6-6.4,18.2C200,452.6,201.3,456.5,203,460.3 M253.8,471.7v-47h6.4
	l25,37.3v-37.3h5.9v47.4h-6.4l-25-37.3v37.3 M340.6,438.7c1.3-3,2.1-5.9,2.5-8.9c0.8,2.5,1.7,5.9,3.4,9.7l5.1,13.1h-16.1
	L340.6,438.7 M328.3,471.7l5.1-14.4h19.9l5.5,14.4h7.2l-19.5-47.4h-6.8l-18.2,47.4H328.3z M388.9,438.7c1.3-3,2.1-5.9,2.5-8.9
	c0.8,2.5,1.7,5.9,3.4,9.7l4.7,13.1h-16.1L388.9,438.7 M377,471.7l5.1-14.4H402l5.5,14.4h7.2l-19.5-47.4h-6.8l-18.2,47.4
	C370.3,471.7,377,471.7,377,471.7z M425.7,429.8h14.8c3.4,0,5.9,0.8,7.6,2.1c1.7,1.3,2.5,3.4,2.5,5.5c0,1.7-0.4,3-1.3,4.2
	c-0.8,1.3-2.1,2.1-3.8,3c-1.7,0.4-3.8,0.8-6.8,0.8h-13.1V429.8 M425.7,471.7v-21.2h7.2c1.7,0,3,0,3.4,0.4c0.8,0.4,1.7,0.8,3,1.3
	c0.8,0.4,2.1,1.7,3.4,3c1.3,1.7,2.5,3.8,4.7,6.4l6.4,9.7h7.6l-8-12.7c-1.7-2.5-3.4-4.7-5.1-6.4c-0.8-0.8-2.1-1.7-3.8-2.5
	c4.7-0.4,8-2.1,10.2-4.2c2.1-2.5,3.4-5.1,3.4-8.5c0-2.5-0.8-5.1-2.1-7.2c-1.3-2.1-3-3.8-5.1-4.7c-2.1-0.8-5.5-1.3-9.7-1.3h-20.7
	v47.4C420.2,471.3,425.7,471.7,425.7,471.7z M488.4,453.1v-5.5h19.9v17.4c-3,2.5-6.4,4.2-9.3,5.5c-3.4,1.3-6.4,1.7-10.2,1.7
	c-4.7,0-8.9-0.8-12.7-3c-3.8-2.1-6.8-4.7-8.5-8.5c-2.1-3.8-3-8-3-12.3c0-4.7,0.8-8.9,3-12.7c1.7-3.8,4.7-6.8,8-8.9
	c3.4-2.1,7.6-3,12.3-3c3.4,0,6.4,0.4,9.3,1.7c2.5,1.3,4.7,2.5,6.4,4.7s2.5,4.7,3.4,7.6l-5.5,1.7c-0.8-2.5-1.7-4.2-2.5-5.5
	c-0.8-1.3-2.5-2.5-4.7-3.4c-2.1-0.8-4.2-1.3-6.4-1.3c-3,0-5.1,0.4-7.2,1.3c-2.1,0.8-3.8,2.1-5.1,3.4c-1.3,1.3-2.1,3-3,4.7
	c-1.3,3-1.7,5.9-1.7,9.3c0,4.2,0.8,7.6,2.1,10.6c1.3,3,3.4,5.1,6.4,6.4c2.5,1.3,5.5,2.1,8.9,2.1c2.5,0,5.5-0.4,8-1.7
	c2.5-1.3,4.7-2.1,5.9-3.4v-8.9H488.4 M531.6,438.7c1.3-3,2.1-5.9,2.5-8.9c0.8,2.5,1.7,5.9,3.4,9.7l4.7,13.1h-16.1L531.6,438.7
	 M519.7,471.7l5.1-14.4h19.9l5.5,14.4h7.2l-19.5-47.4h-6.8L513,471.7C513,471.7,519.7,471.7,519.7,471.7z M591.7,424.7h6.4v27.1
	c0,4.7-0.4,8.5-1.7,11c-1.3,3-3,5.1-5.9,6.8s-6.4,2.5-11,2.5c-4.2,0-8-0.8-11-2.1c-3-1.7-4.7-3.8-5.9-6.4c-1.3-3-1.7-6.8-1.7-11.9
	v-27.1h6.4v27.1c0,4.2,0.4,7.2,1.3,8.9c0.8,2.1,2.1,3.4,3.8,4.7c1.7,0.8,4.2,1.7,6.8,1.7c4.7,0,7.6-0.8,9.7-3c2.1-2.1,3-5.9,3-11.9
	V424.7"/>
</svg>
